<?xml version="1.0" encoding="UTF-8"?>
<svg id="Layer_2" data-name="Layer 2" xmlns="http://www.w3.org/2000/svg" viewBox="0 0 160 160">
  <defs>
    <style>
      .cls-1 {
        fill: #B76E79;
      }
    </style>
  </defs>
  <g id="LOGOS">
    <path class="cls-1" d="M142.45,87.07l-14.14,14.14,6.08,6.08c7.47,7.47,7.47,19.62,0,27.09-3.62,3.62-8.43,5.61-13.55,5.61-2.18,0-4.3-.38-6.3-1.08q-.11,1.66,0,0c-2.69-.94-5.17-2.46-7.24-4.53l-6.08-6.08-7.07-7.07,13.56-13.56,13.53-13.53,14.14-14.14,7.07-7.07,6.08-6.08c15.29-15.29,15.29-40.09,0-55.38-7.65-7.65-17.67-11.47-27.69-11.47-7.56,0-15.11,2.18-21.65,6.53,0,0,0,0,0,0-2.13,1.42-4.16,3.06-6.04,4.94l-6.08,6.08,14.14,14.14,4.67-4.67q.23-2.94,0,0l1.41-1.41c3.62-3.62,8.43-5.61,13.55-5.61s9.93,1.99,13.55,5.61c7.47,7.47,7.47,19.62,0,27.09l-6.08,6.08-7.07,7.07-22.44-22.44-4.65-4.65-14.14-14.14-7.07-7.07-6.08-6.08c-1.29-1.29-2.65-2.46-4.06-3.53q-1.19,.63,0,0C55.82,2.65,47.49,0,39.16,0,29.14,0,19.12,3.82,11.47,11.47c-15.29,15.29-15.29,40.09,0,55.38l6.08,6.08,14.14-14.14-6.08-6.08c-7.47-7.47-7.47-19.62,0-27.09,3.62-3.62,8.43-5.61,13.55-5.61,2.43,0,4.78,.46,6.97,1.32,2.43,.95,4.67,2.39,6.57,4.29l6.08,6.08,7.07,7.07-12.9,12.9h0s-14.2,14.2-14.2,14.2l-14.14,14.14-7.07,7.07-6.08,6.08c-15.29,15.29-15.29,40.09,0,55.38,7.65,7.65,17.67,11.47,27.69,11.47,1.9,0,3.8-.14,5.68-.41,8.05-1.17,15.81-4.86,22.01-11.06l6.08-6.08-14.14-14.14-6.08,6.08c-.92,.92-1.91,1.73-2.97,2.43-3.11,2.07-6.76,3.18-10.58,3.18-5.12,0-9.93-1.99-13.55-5.61-7.47-7.47-7.47-19.62,0-27.09l6.08-6.08,7.07-7.07,18.24,18.24,8.85,8.85,14.14,14.14,7.07,7.07,6.08,6.08c4.94,4.94,10.88,8.28,17.16,10.02,3.44,.96,6.98,1.45,10.53,1.45,10.02,0,20.04-3.82,27.69-11.47,15.29-15.29,15.29-40.09,0-55.38l-6.08-6.08ZM48.83,17.77c-.09,.12-.22,.28-.36,.46,0-.01,.02-.02,.03-.03,.05-.06,.11-.14,.15-.2,.07-.08,.13-.16,.18-.23Zm-1.03,1.31c-.07,.09-.13,.17-.19,.25-.07,.09-.14,.17-.19,.24,.13-.17,.27-.34,.38-.48Zm-.55,.69c.06-.07,.1-.12,.15-.19-.09,.12-.15,.19-.15,.19,0,0,0,0,0,0,0,0,0,0,0,0,2.17-2.75,4.78-5.05,7.61-7.06-2.83,2.01-5.44,4.32-7.61,7.06Zm22.17,76.74h0s-16.51-16.51-16.51-16.51l18.87-18.87c-2.46-.68-4.87-1.53-7.21-2.55,2.34,1.02,4.75,1.87,7.21,2.55l8.23-8.23,6.23,6.23,20.86,20.86-14.05,14.05-13.04,13.04-10.58-10.58Z"/>
  </g>
</svg>